REM DIRINDEX 1\2,1\3
REM DIRNAME folder01,folder02,folder03
TITLE ""
FILE "DISC2Track07.mp3" MP3
  TRACK 01 AUDIO
    TITLE "0:"
    INDEX 01 00:00:00
  TRACK 02 AUDIO
    TITLE "3:cjc133_1982"
    INDEX 01 00:00:17
  TRACK 03 AUDIO
    TITLE "0:"
    INDEX 01 00:01:13
  TRACK 04 AUDIO
    TITLE "2:cjc133_1983"
    INDEX 01 00:01:64
  TRACK 05 AUDIO
    TITLE "2:cjc133_1984"
    INDEX 01 00:04:01
  TRACK 06 AUDIO
    TITLE "2:cjc133_1985"
    INDEX 01 00:07:33
  TRACK 07 AUDIO
    TITLE "0:"
    INDEX 01 00:10:00
  TRACK 08 AUDIO
    TITLE "2:cjc133_1986"
    INDEX 01 00:10:49
  TRACK 09 AUDIO
    TITLE "2:cjc133_1987"
    INDEX 01 00:12:50
  TRACK 10 AUDIO
    TITLE "2:cjc133_1988"
    INDEX 01 00:16:06
  TRACK 11 AUDIO
    TITLE "0:"
    INDEX 01 00:18:39
  TRACK 12 AUDIO
    TITLE "2:cjc133_1989"
    INDEX 01 00:19:11
  TRACK 13 AUDIO
    TITLE "2:cjc133_1990"
    INDEX 01 00:21:29
  TRACK 14 AUDIO
    TITLE "2:cjc133_1991"
    INDEX 01 00:25:31
  TRACK 15 AUDIO
    TITLE "0:"
    INDEX 01 00:28:00
  TRACK 16 AUDIO
    TITLE "2:cjc133_1992"
    INDEX 01 00:28:55
  TRACK 17 AUDIO
    TITLE "2:cjc133_1993"
    INDEX 01 00:30:48
  TRACK 18 AUDIO
    TITLE "2:cjc133_1994"
    INDEX 01 00:33:64
  TRACK 19 AUDIO
    TITLE "0:"
    INDEX 01 00:36:11
  TRACK 20 AUDIO
    TITLE "2:cjc133_1995"
    INDEX 01 00:36:66
  TRACK 21 AUDIO
    TITLE "2:cjc133_1996"
    INDEX 01 00:39:00
  TRACK 22 AUDIO
    TITLE "2:cjc133_1997"
    INDEX 01 00:42:31
  TRACK 23 AUDIO
    TITLE "0:"
    INDEX 01 00:44:63
  TRACK 24 AUDIO
    TITLE "2:cjc133_1998"
    INDEX 01 00:45:41
  TRACK 25 AUDIO
    TITLE "2:cjc133_1999"
    INDEX 01 00:47:30
  TRACK 26 AUDIO
    TITLE "2:cjc133_2000"
    INDEX 01 00:50:41
  TRACK 27 AUDIO
    TITLE "0:"
    INDEX 01 00:52:57
  TRACK 28 AUDIO
    TITLE "2:cjc133_2001"
    INDEX 01 00:53:33
  TRACK 29 AUDIO
    TITLE "2:cjc133_2002"
    INDEX 01 00:56:00
  TRACK 30 AUDIO
    TITLE "2:cjc133_2003"
    INDEX 01 01:01:11
  TRACK 31 AUDIO
    TITLE "0:"
    INDEX 01 01:04:25
  TRACK 32 AUDIO
    TITLE "2:cjc133_2004"
    INDEX 01 01:05:05
  TRACK 33 AUDIO
    TITLE "2:cjc133_2005"
    INDEX 01 01:06:67
  TRACK 34 AUDIO
    TITLE "2:cjc133_2006"
    INDEX 01 01:10:51
  TRACK 35 AUDIO
    TITLE "0:"
    INDEX 01 01:13:08
  TRACK 36 AUDIO
    TITLE "2:cjc133_2007"
    INDEX 01 01:13:57
  TRACK 37 AUDIO
    TITLE "2:cjc133_2008"
    INDEX 01 01:15:74
  TRACK 38 AUDIO
    TITLE "2:cjc133_2009"
    INDEX 01 01:19:74
  TRACK 39 AUDIO
    TITLE "0:"
    INDEX 01 01:22:50
  TRACK 40 AUDIO
    TITLE "2:cjc133_2010"
    INDEX 01 01:23:24
  TRACK 41 AUDIO
    TITLE "2:cjc133_2011"
    INDEX 01 01:25:25
  TRACK 42 AUDIO
    TITLE "2:cjc133_2012"
    INDEX 01 01:29:23
  TRACK 43 AUDIO
    TITLE "0:"
    INDEX 01 01:31:67
  TRACK 44 AUDIO
    TITLE "2:cjc133_2013"
    INDEX 01 01:32:47
  TRACK 45 AUDIO
    TITLE "2:cjc133_2014"
    INDEX 01 01:35:22
  TRACK 46 AUDIO
    TITLE "2:cjc133_2015"
    INDEX 01 01:39:47
  TRACK 47 AUDIO
    TITLE "0:"
    INDEX 01 01:42:31
  TRACK 48 AUDIO
    TITLE "2:cjc133_2016"
    INDEX 01 01:43:09
  TRACK 49 AUDIO
    TITLE "2:cjc133_2017"
    INDEX 01 01:44:58
  TRACK 50 AUDIO
    TITLE "2:cjc133_2018"
    INDEX 01 01:47:72
  TRACK 51 AUDIO
    TITLE "0:"
    INDEX 01 01:50:21
  TRACK 52 AUDIO
    TITLE "2:cjc133_2019"
    INDEX 01 01:50:72
  TRACK 53 AUDIO
    TITLE "2:cjc133_2020"
    INDEX 01 01:52:69
  TRACK 54 AUDIO
    TITLE "2:cjc133_2021"
    INDEX 01 01:56:16
  TRACK 55 AUDIO
    TITLE "0:"
    INDEX 01 01:58:46
  TRACK 56 AUDIO
    TITLE "2:cjc133_2022"
    INDEX 01 01:59:22
  TRACK 57 AUDIO
    TITLE "2:cjc133_2023"
    INDEX 01 02:01:23
  TRACK 58 AUDIO
    TITLE "2:cjc133_2024"
    INDEX 01 02:04:53
  TRACK 59 AUDIO
    TITLE "0:"
    INDEX 01 02:07:12
  TRACK 60 AUDIO
    TITLE "2:cjc133_2025"
    INDEX 01 02:07:67
  TRACK 61 AUDIO
    TITLE "2:cjc133_2026"
    INDEX 01 02:09:56
  TRACK 62 AUDIO
    TITLE "2:cjc133_2027"
    INDEX 01 02:12:54
  TRACK 63 AUDIO
    TITLE "0:"
    INDEX 01 02:14:53
